<?xml version="1.0" standalone="no"?>
<!DOCTYPE svg PUBLIC "-//W3C//DTD SVG 20010904//EN"
 "http://www.w3.org/TR/2001/REC-SVG-20010904/DTD/svg10.dtd">
<svg version="1.0" xmlns="http://www.w3.org/2000/svg"
 width="88.000000pt" height="88.000000pt" viewBox="0 0 88.000000 88.000000"
 preserveAspectRatio="xMidYMid meet">
<metadata>
Created by potrace 1.14, written by Peter Selinger 2001-2017
</metadata>
<g transform="translate(0.000000,88.000000) scale(0.100000,-0.100000)"
fill="#000000" stroke="none">
<path d="M280 683 c-8 -3 -17 -9 -20 -13 -3 -3 -34 -26 -70 -50 -78 -52 -110
-87 -110 -118 0 -37 87 -172 149 -230 71 -68 157 -127 201 -139 46 -13 95 1
143 39 23 18 54 32 75 34 105 10 129 25 148 90 22 75 20 153 -5 201 -49 97
-110 140 -240 172 -80 20 -234 28 -271 14z"/>
</g>
</svg>
